<svg xmlns="http://www.w3.org/2000/svg" xmlns:xlink="http://www.w3.org/1999/xlink" version="1.1" x="0px" y="0px" viewBox="0 0 100 125" enable-background="new 0 0 100 100" xml:space="preserve"><g><path d="M73,40H47V28c0-0.786-0.46-1.499-1.176-1.822c-0.718-0.324-1.556-0.198-2.146,0.321l-25,22C18.247,48.878,18,49.425,18,50   s0.247,1.122,0.679,1.501l25,22C44.051,73.829,44.523,74,45,74c0.279,0,0.56-0.058,0.824-0.178C46.54,73.498,47,72.786,47,72V60h26   c5.514,0,10-4.486,10-10S78.514,40,73,40z"/></g></svg>